<svg xmlns="http://www.w3.org/2000/svg" width="28" height="28" viewBox="0 0 28 28">
  <g id="Group_796" data-name="Group 796" transform="translate(-1815 -540)">
    <circle id="Ellipse_1007" data-name="Ellipse 1007" cx="14" cy="14" r="14" transform="translate(1815 540)" fill="#d9e1ff"/>
    <path id="path" d="M114.991,211.991a6.856,6.856,0,0,1,5.12-2.091,7.138,7.138,0,0,1,5.12,2.091,6.856,6.856,0,0,1,2.091,5.12,7.138,7.138,0,0,1-2.091,5.12,6.856,6.856,0,0,1-5.12,2.091,7.138,7.138,0,0,1-5.12-2.091,6.856,6.856,0,0,1-2.091-5.12A7.019,7.019,0,0,1,114.991,211.991ZM116,221.15a5.574,5.574,0,0,0,4.039,1.731,5.458,5.458,0,0,0,4.039-1.731,5.574,5.574,0,0,0,1.731-4.039,5.346,5.346,0,0,0-1.731-4.039,5.574,5.574,0,0,0-4.039-1.731A5.458,5.458,0,0,0,116,213.073a5.574,5.574,0,0,0-1.731,4.039A6.214,6.214,0,0,0,116,221.15Zm4.471-7.717v3.75l3.245,1.947-.577.938-3.75-2.308v-4.327Z" transform="translate(1709.189 337.036)" fill="#7f9aff" stroke="#7f9aff" stroke-width="0.2"/>
  </g>
</svg>
