<svg xmlns="http://www.w3.org/2000/svg" width="74.28" height="70.566" viewBox="0 0 74.28 70.566">
  <g id="Group_883" data-name="Group 883" transform="translate(-356.404 -339.963)">
    <path id="path" d="M851.48,35.714l-8.1,9.454,1.013,12.493-12.155,2.7-6.415,10.8L814.34,66.1l-11.48,5.065L796.445,60.7,784.29,58,785.3,45.506l-8.1-9.454,8.1-9.454L784.29,14.105l12.155-2.7L802.86.6l11.48,5.065L825.82.6l6.415,10.8,12.155,2.7L843.377,26.6Zm-34.1,3.376V18.832h-6.753V39.091Zm0,13.505V45.843h-6.753V52.6Z" transform="translate(-420.796 339.363)" fill="#ff6763"/>
    <rect id="Rectangle_1319" data-name="Rectangle 1319" width="21.646" height="42.426" transform="translate(379.609 353.816)" fill="#ff6763"/>
    <text id="A" transform="translate(382.938 354.414)" fill="#fff" font-size="30" font-family="OpenSans-Bold, Open Sans" font-weight="700"><tspan x="0" y="32">A</tspan></text>
  </g>
</svg>
