<svg xmlns="http://www.w3.org/2000/svg" width="40.11" height="40.11" viewBox="0 0 40.11 40.11">
  <g id="Group_788" data-name="Group 788" transform="translate(-1135.709 -480.847)">
    <circle id="Ellipse_1041" data-name="Ellipse 1041" cx="17.681" cy="17.681" r="17.681" transform="translate(1139.111 484.16)" fill="#fff"/>
    <path id="path" d="M192.616,1050.916a19.064,19.064,0,0,1,14.239-5.816,19.849,19.849,0,0,1,14.239,5.816,18.763,18.763,0,0,1,5.816,14.239,19.85,19.85,0,0,1-5.816,14.239,18.763,18.763,0,0,1-14.239,5.816,19.849,19.849,0,0,1-14.239-5.816,18.763,18.763,0,0,1-5.816-14.239A19.518,19.518,0,0,1,192.616,1050.916Zm10.228,24.066,18.049-18.05-2.6-2.784-.209-.224-15.242,15.242-7.22-7.22-2.808,2.808Z" transform="translate(948.909 -564.254)" fill="#7ea1ff"/>
  </g>
</svg>
