<svg xmlns="http://www.w3.org/2000/svg" width="18" height="9.791" viewBox="0 0 18 9.791">
  <path id="path" d="M967.025,947.366v1.506h-2.259v2.259h-1.506v-2.259H961v-1.506h2.259v-2.259h1.506v2.259Zm.753,2.862a8.886,8.886,0,0,1,2.937-.6,8.526,8.526,0,0,1,2.937.6c.979.377,1.582.979,1.582,1.657v1.506H966.2v-1.506C966.2,951.207,966.724,950.68,967.778,950.228Zm4.594-2.787a2.184,2.184,0,1,1,.678-1.582A2.51,2.51,0,0,1,972.372,947.441Zm2.184.678a2.085,2.085,0,0,1-.678-.075,3.588,3.588,0,0,0,.678-2.184,3.75,3.75,0,0,0-.678-2.184,2.085,2.085,0,0,1,.678-.075,2.26,2.26,0,0,1,0,4.519Zm1.205,1.657a6.137,6.137,0,0,1,2.259.753,1.71,1.71,0,0,1,.979,1.356v1.506h-2.259v-1.506A2.458,2.458,0,0,0,975.762,949.776Z" transform="translate(-961 -943.6)" fill="#fff"/>
</svg>
