<svg xmlns="http://www.w3.org/2000/svg" width="14" height="11.2" viewBox="0 0 14 11.2">
  <path id="path" d="M88.5,768.6a1.271,1.271,0,0,1,.98.42,1.382,1.382,0,0,1,.42.98v8.4a1.435,1.435,0,0,1-1.4,1.4H77.3a1.271,1.271,0,0,1-.98-.42,1.382,1.382,0,0,1-.42-.98V770a1.435,1.435,0,0,1,1.4-1.4Zm0,9.8V770H77.3v8.4Zm-6.3-.7V777H80.8v-1.4h2.8v-.7H81.5a.718.718,0,0,1-.7-.7v-2.1a.718.718,0,0,1,.7-.7h.7v-.7h1.4v.7H85v1.4H82.2v.7h2.1a.718.718,0,0,1,.7.7v2.1a.718.718,0,0,1-.7.7h-.7v.7Z" transform="translate(-75.9 -768.6)" fill="#fff"/>
</svg>
