<svg xmlns="http://www.w3.org/2000/svg" width="28" height="28" viewBox="0 0 28 28"><g transform="translate(-535 -550)"><circle cx="14" cy="14" r="14" transform="translate(535 550)" fill="#d9e1ff"/><path d="M49.456,982.492h4.728v7.88H40V979.34h4.728v-1.576l2.364-2.364,2.364,2.364Zm-6.383,0v-1.576H41.5v1.576Zm0,3.152v-1.576H41.5v1.576Zm0,3.152V987.22H41.5V988.8ZM47.8,979.34v-1.576H46.225v1.576Zm0,3.152v-1.576H46.225v1.576Zm0,3.152v-1.576H46.225v1.576Zm0,3.152V987.22H46.225V988.8Zm4.728-3.152v-1.576H50.953v1.576Zm0,3.152V987.22H50.953V988.8Z" transform="translate(502 -420.14)" fill="#7ea1ff"/></g></svg>