<svg xmlns="http://www.w3.org/2000/svg" width="13" height="12.316" viewBox="0 0 13 12.316">
  <path id="path" d="M200.116,1021.463v.684a1.4,1.4,0,0,1-1.368,1.369h-9.579a1.242,1.242,0,0,1-.958-.411,1.351,1.351,0,0,1-.411-.958v-9.579a1.4,1.4,0,0,1,1.368-1.368h9.579a1.4,1.4,0,0,1,1.368,1.368v.684h-6.158a1.242,1.242,0,0,0-.958.411,1.351,1.351,0,0,0-.411.958v5.474a1.4,1.4,0,0,0,1.368,1.368Zm-6.158-1.368v-5.474H200.8v5.474Zm1.984-1.984a1.172,1.172,0,1,0-.274-.753A.934.934,0,0,0,195.942,1018.11Z" transform="translate(-187.8 -1011.2)" fill="#fff"/>
</svg>
