<svg xmlns="http://www.w3.org/2000/svg" width="10.779" height="18.732" viewBox="0 0 10.779 18.732">
  <path id="path" d="M122.965,288.658a11.216,11.216,0,0,1,1.779.628,7.284,7.284,0,0,1,1.465.837,3.247,3.247,0,0,1,1.151,1.256,3.584,3.584,0,0,1,.419,1.884,3.1,3.1,0,0,1-1.046,2.512,5.479,5.479,0,0,1-2.721,1.256v2.3h-3.139v-2.3a6.085,6.085,0,0,1-2.721-1.36A3.8,3.8,0,0,1,117,293.053h2.3q.157,2.2,3.139,2.2a3.743,3.743,0,0,0,2.2-.523,1.809,1.809,0,0,0,.628-1.256q0-1.727-3.139-2.512c-3.244-.733-4.919-2.2-4.919-4.291a3.03,3.03,0,0,1,1.046-2.407,5.709,5.709,0,0,1,2.616-1.36v-2.3h3.139v2.3a5.023,5.023,0,0,1,2.512,1.465,5.239,5.239,0,0,1,.942,2.512h-2.3c-.1-1.465-.942-2.2-2.616-2.2a3.467,3.467,0,0,0-1.988.523,1.584,1.584,0,0,0-.733,1.465C119.826,287.4,120.872,288.135,122.965,288.658Z" transform="translate(-117 -280.6)" fill="#fff"/>
</svg>
