<svg id="Group_655" data-name="Group 655" xmlns="http://www.w3.org/2000/svg" xmlns:xlink="http://www.w3.org/1999/xlink" width="174.298" height="174.299" viewBox="0 0 174.298 174.299">
  <defs>
    <clipPath id="clip-path">
      <ellipse id="Ellipse_782" data-name="Ellipse 782" cx="87.149" cy="87.149" rx="87.149" ry="87.149" fill="none"/>
    </clipPath>
  </defs>
  <g id="Group_654" data-name="Group 654" clip-path="url(#clip-path)">
    <ellipse id="Ellipse_771" data-name="Ellipse 771" cx="87.149" cy="87.149" rx="87.149" ry="87.149" fill="#d6d6ff"/>
    <path id="Path_1219" data-name="Path 1219" d="M-300.968,3634.882s14.285-58.995,58.763-58.995c49.608,0,58.65,60.942,58.65,60.942s-18.574,22.783-57.318,22.783C-278.972,3659.612-295.622,3641.827-300.968,3634.882Z" transform="translate(328.851 -3474.776)" fill="#ffd766"/>
    <ellipse id="Ellipse_772" data-name="Ellipse 772" cx="12.844" cy="10.261" rx="12.844" ry="10.261" transform="translate(74.177 96.332)" fill="#f4a2b0"/>
    <ellipse id="Ellipse_773" data-name="Ellipse 773" cx="41.027" cy="41.027" rx="41.027" ry="41.027" transform="translate(45.256 25.003)" fill="#ffb5bc"/>
    <path id="Path_1220" data-name="Path 1220" d="M-262.741,3562.538s1.656,3.242,4.952,2.893a5.257,5.257,0,0,0,3.852-2.865" transform="translate(344.958 -3480.401)" fill="none" stroke="#6246c6" stroke-miterlimit="10" stroke-width="0.5"/>
    <ellipse id="Ellipse_774" data-name="Ellipse 774" cx="2.831" cy="2.831" rx="2.831" ry="2.831" transform="translate(70.54 65.083)" fill="#6246c6"/>
    <ellipse id="Ellipse_775" data-name="Ellipse 775" cx="2.831" cy="2.831" rx="2.831" ry="2.831" transform="translate(97.02 65.083)" fill="#6246c6"/>
    <ellipse id="Ellipse_776" data-name="Ellipse 776" cx="5.682" cy="1.542" rx="5.682" ry="1.542" transform="translate(57.121 79.269)" fill="#ff8fe2"/>
    <ellipse id="Ellipse_777" data-name="Ellipse 777" cx="6.481" cy="6.481" rx="6.481" ry="6.481" transform="translate(41.992 69.39)" fill="#ffb5bc"/>
    <ellipse id="Ellipse_778" data-name="Ellipse 778" cx="6.481" cy="6.481" rx="6.481" ry="6.481" transform="translate(118.736 68.247)" fill="#ffb5bc"/>
    <ellipse id="Ellipse_779" data-name="Ellipse 779" cx="5.682" cy="1.542" rx="5.682" ry="1.542" transform="translate(104.103 79.419)" fill="#ff8fe2"/>
    <path id="Path_1221" data-name="Path 1221" d="M-241.295,3580.212l-2.659,26.168h9.173l1.488-20.56S-238.452,3581.444-241.295,3580.212Z" transform="translate(352.875 -3472.953)" fill="#9ce4e4"/>
    <path id="Path_1222" data-name="Path 1222" d="M-274.354,3580.694l2.659,26.169h-9.175l-1.487-20.563S-277.2,3581.923-274.354,3580.694Z" transform="translate(336.693 -3472.751)" fill="#9ce4e4"/>
    <rect id="Rectangle_854" data-name="Rectangle 854" width="65.244" height="39.45" transform="translate(54.337 138.198)" fill="#9ce4e4"/>
    <path id="Path_1223" data-name="Path 1223" d="M-243.712,3598.624l1.973,4.1h4.512l1.878-4.1" transform="translate(352.977 -3465.197)" fill="none" stroke="#fff" stroke-miterlimit="10" stroke-width="0.912"/>
    <path id="Path_1224" data-name="Path 1224" d="M-281.021,3598.624l1.973,4.1h4.512l1.878-4.1" transform="translate(337.256 -3465.197)" fill="none" stroke="#fff" stroke-miterlimit="10" stroke-width="0.912"/>
    <ellipse id="Ellipse_780" data-name="Ellipse 780" cx="3.258" cy="3.258" rx="3.258" ry="3.258" transform="translate(57.669 141.552)" fill="#fff"/>
    <ellipse id="Ellipse_781" data-name="Ellipse 781" cx="3.258" cy="3.258" rx="3.258" ry="3.258" transform="translate(109.785 141.552)" fill="#fff"/>
    <rect id="Rectangle_855" data-name="Rectangle 855" width="37.11" height="29.114" transform="translate(68.485 154.043)" fill="none" stroke="#fff" stroke-miterlimit="10" stroke-width="0.912"/>
    <path id="Path_1225" data-name="Path 1225" d="M-235.685,3526.015s.316,12.076-17.8,13.638c0,0,10.173-4.161,10.8-6.3,0,0-12.831,7.223-28.143,3.344,0,0,10.382-1.777,13.267-4.063a41.572,41.572,0,0,1-19.622-1.968S-260.659,3515.365-235.685,3526.015Z" transform="translate(338.87 -3497.379)" fill="#6246c6"/>
    <path id="Path_1226" data-name="Path 1226" d="M-244.989,3526.27a3.277,3.277,0,0,0-3.487,2.1l.692-3.477Z" transform="translate(350.969 -3496.262)" fill="#6246c6"/>
  </g>
</svg>
