<svg xmlns="http://www.w3.org/2000/svg" width="13" height="11.895" viewBox="0 0 13 11.895">
  <path id="path" d="M784.7,1057.895l-.975-.845q-1.657-1.463-2.34-2.145a23.346,23.346,0,0,1-1.625-1.755,6.611,6.611,0,0,1-1.235-1.885,5.19,5.19,0,0,1-.325-1.69,3.551,3.551,0,0,1,3.575-3.575,3.817,3.817,0,0,0,5.85,0,3.242,3.242,0,0,1,2.535,1.04,3.706,3.706,0,0,1,1.04,2.535,4.768,4.768,0,0,1-.78,2.47,12.328,12.328,0,0,1-1.69,2.21c-.585.585-1.625,1.56-3.055,2.86Z" transform="translate(-778.2 -1046)" fill="#fff"/>
</svg>
