<svg xmlns="http://www.w3.org/2000/svg" width="24.991" height="32.801" viewBox="0 0 24.991 32.801">
  <path id="path" d="M838.967,1089.733a3.2,3.2,0,0,1,3.124,3.124v15.619a3.2,3.2,0,0,1-3.124,3.124H820.224a3.2,3.2,0,0,1-3.124-3.124v-15.619a3.2,3.2,0,0,1,3.124-3.124h1.562v-3.124a7.09,7.09,0,0,1,2.343-5.467,8.26,8.26,0,0,1,5.467-2.343,7.327,7.327,0,0,1,5.467,2.343,8.26,8.26,0,0,1,2.343,5.467v3.124Zm-4.53,0v-3.124a4.845,4.845,0,0,0-1.406-3.436,4.842,4.842,0,0,0-8.278,3.436v3.124Zm-7.029,13.12a3.02,3.02,0,1,0-.937-2.187A3.084,3.084,0,0,0,827.409,1102.853Z" transform="translate(-817.1 -1078.8)" fill="#8e8e8e"/>
</svg>
