<svg xmlns="http://www.w3.org/2000/svg" width="12.586" height="12.586" viewBox="0 0 12.586 12.586">
  <path id="path" d="M826.427,1149.4a1.29,1.29,0,0,1,1.259,1.259v7.551a1.29,1.29,0,0,1-1.259,1.259h-8.81l-2.517,2.517v-11.327a1.29,1.29,0,0,1,1.259-1.259Zm-7.551,3.776v-1.259h-1.259v1.259Zm0,1.888V1153.8h-1.259v1.259Zm0,1.888v-1.259h-1.259v1.259Zm6.293-3.776v-1.259h-5.034v1.259Zm0,1.888V1153.8h-5.034v1.259Zm-1.888,1.888v-1.259h-3.146v1.259Z" transform="translate(-815.1 -1149.4)" fill="#9d9d9d"/>
</svg>
