<svg xmlns="http://www.w3.org/2000/svg" xmlns:xlink="http://www.w3.org/1999/xlink" width="20" height="20" viewBox="0 0 20 20"><defs><clipPath id="a"><rect width="20" height="20" fill="none"/></clipPath></defs><g clip-path="url(#a)"><g transform="translate(-1266.8 -541.692)"><path d="M226.7,874a9.506,9.506,0,0,1,7.1-2.9,10.068,10.068,0,0,1,7.1,2.9,9.506,9.506,0,0,1,2.9,7.1,9.9,9.9,0,0,1-2.9,7.1,9.506,9.506,0,0,1-7.1,2.9,9.9,9.9,0,0,1-7.1-2.9,9.506,9.506,0,0,1-2.9-7.1A9.732,9.732,0,0,1,226.7,874Zm12.1,10.6-3.6-3.6,3.6-3.6-1.4-1.4-3.6,3.6-3.6-3.6-1.4,1.4,3.6,3.6-3.6,3.6,1.4,1.4,3.6-3.6,3.6,3.6Z" transform="translate(1043 -329.408)" fill="#7ea1ff"/></g></g></svg>