<svg xmlns="http://www.w3.org/2000/svg" xmlns:xlink="http://www.w3.org/1999/xlink" width="16.298" height="18.2" viewBox="0 0 16.298 18.2"><defs><clipPath id="a"><rect width="16.298" height="18.2" fill="none"/></clipPath></defs><g clip-path="url(#a)"><g transform="translate(-1268.1 -336.745)"><path d="M830.588,1011a1.857,1.857,0,0,1,1.811,1.811v12.677a1.857,1.857,0,0,1-1.811,1.811H817.911a1.857,1.857,0,0,1-1.811-1.811v-12.677a1.857,1.857,0,0,1,1.811-1.811h3.8a2.961,2.961,0,0,1,1-1.358,2.453,2.453,0,0,1,3.079,0,2.96,2.96,0,0,1,1,1.358h3.8Zm-8.149,12.677,7.244-7.244-1.268-1.268-5.976,5.976-2.354-2.354-1.268,1.268Zm2.445-12.4a.875.875,0,1,0,.272.634A.822.822,0,0,0,824.883,1011.273Z" transform="translate(452 -672.356)" fill="#7ea1ff"/></g></g></svg>