<svg xmlns="http://www.w3.org/2000/svg" xmlns:xlink="http://www.w3.org/1999/xlink" width="11.955" height="20.777" viewBox="0 0 11.955 20.777"><defs><clipPath id="a"><rect width="11.955" height="20.777" fill="none"/></clipPath></defs><g clip-path="url(#a)"><g transform="translate(-1270 -402.6)"><path d="M123.616,289.538a12.444,12.444,0,0,1,1.973.7,8.08,8.08,0,0,1,1.625.929,3.6,3.6,0,0,1,1.277,1.393,3.975,3.975,0,0,1,.464,2.089,3.441,3.441,0,0,1-1.161,2.786,6.077,6.077,0,0,1-3.018,1.393v2.554h-3.482v-2.554a6.75,6.75,0,0,1-3.018-1.509,4.214,4.214,0,0,1-1.277-2.9h2.554q.174,2.438,3.482,2.438a4.151,4.151,0,0,0,2.438-.58,2.006,2.006,0,0,0,.7-1.393q0-1.915-3.482-2.786c-3.6-.813-5.455-2.438-5.455-4.759a3.361,3.361,0,0,1,1.161-2.67,6.332,6.332,0,0,1,2.9-1.509V280.6h3.482v2.554a5.571,5.571,0,0,1,2.786,1.625,5.811,5.811,0,0,1,1.045,2.786h-2.554c-.116-1.625-1.045-2.437-2.9-2.437a3.845,3.845,0,0,0-2.205.58,1.756,1.756,0,0,0-.812,1.625C120.134,288.145,121.295,288.957,123.616,289.538Z" transform="translate(1153 122)" fill="#7ea1ff"/></g></g></svg>