<svg xmlns="http://www.w3.org/2000/svg" width="23.469" height="26.47" viewBox="0 0 23.469 26.47"><g transform="translate(1.502 1)"><path d="M2236.821,2170.286h-20.392c.194-.465,2.6-4.531,2.646-6.576.035-1.479-.026-2.961.016-4.439a7.079,7.079,0,0,1,4.316-6.59,1.076,1.076,0,0,0,.772-1,2.458,2.458,0,0,1,4.871-.027c.059.626.357.819.848,1.063a7.074,7.074,0,0,1,4.236,6.537c.049,1.88.047,3.762.15,5.64C2234.374,2166.531,2236.6,2169.807,2236.821,2170.286Z" transform="translate(-2216.429 -2149.536)" fill="none" stroke="#d5d5d5" stroke-width="2"/><path d="M2236.113,2185.689a3.587,3.587,0,0,1-3.864,3.561,3.662,3.662,0,0,1-3.744-3.561Z" transform="translate(-2222.01 -2164.78)" fill="none" stroke="#d5d5d5" stroke-width="2"/></g></svg>