<svg xmlns="http://www.w3.org/2000/svg" width="13.019" height="12.954" viewBox="0 0 13.019 12.954"><path d="M705.5,3.591v9.067h9.068v1.3H705.5a1.328,1.328,0,0,1-1.3-1.3V3.591ZM715.923,1a1.279,1.279,0,0,1,.907.389,1.279,1.279,0,0,1,.389.907v7.772a1.328,1.328,0,0,1-1.3,1.3h-7.772a1.328,1.328,0,0,1-1.3-1.3V2.3a1.279,1.279,0,0,1,.389-.907A1.279,1.279,0,0,1,708.151,1Zm-.712,3.238v-1.3h-6.477v1.3Zm0,2.591v-1.3h-6.477v1.3ZM712.62,9.42v-1.3h-3.886v1.3Z" transform="translate(-704.2 -1)" fill="#fff"/></svg>