<svg xmlns="http://www.w3.org/2000/svg" width="12.909" height="13.16" viewBox="0 0 12.909 13.16">
  <path id="Union_8" data-name="Union 8" d="M16328.14,1071.16a.334.334,0,0,1-.328-.262l-.267-1.71a3.95,3.95,0,0,1-1.115-.66l-1.648.66a.29.29,0,0,1-.394-.135l-1.315-2.3a.321.321,0,0,1,.065-.463l1.382-1.05v-1.316l-1.382-1.054a.394.394,0,0,1-.065-.463l1.315-2.3a.292.292,0,0,1,.394-.131l1.648.656a5.342,5.342,0,0,1,1.115-.656l.267-1.714c.065-.2.131-.262.328-.262h2.632a.335.335,0,0,1,.328.262l.262,1.714a3.8,3.8,0,0,1,1.12.656l1.644-.656a.3.3,0,0,1,.4.131l1.316,2.3a.321.321,0,0,1-.065.463l-1.382,1.054v1.316l1.382,1.05a.4.4,0,0,1,.065.463l-1.316,2.3a.293.293,0,0,1-.4.135l-1.644-.66a5.492,5.492,0,0,1-1.12.66l-.262,1.71c-.065.2-.132.262-.328.262Z" transform="translate(-16323.001 -1058)" fill="#fff"/>
</svg>
