<svg xmlns="http://www.w3.org/2000/svg" width="13.001" height="14.136" viewBox="0 0 13.001 14.136">
  <g id="Group_735" data-name="Group 735" transform="translate(-188.437 -878.937)">
    <path id="path" d="M311.7,141.937a1.8,1.8,0,0,1,1.213.471,1.483,1.483,0,0,1,.52,1.1V154.5a1.483,1.483,0,0,1-.52,1.1,1.8,1.8,0,0,1-1.213.471H302.17a1.8,1.8,0,0,1-1.213-.471,1.483,1.483,0,0,1-.52-1.1V143.507a1.483,1.483,0,0,1,.52-1.1,1.8,1.8,0,0,1,1.213-.471Zm0,12.565V143.507H302.17V154.5Z" transform="translate(-112 737)" fill="#fff"/>
    <path id="path-2" data-name="path" d="M119.63,284.152a4.938,4.938,0,0,1,.784.277,3.214,3.214,0,0,1,.646.369,1.431,1.431,0,0,1,.507.554,1.579,1.579,0,0,1,.185.83,1.368,1.368,0,0,1-.461,1.107,2.416,2.416,0,0,1-1.2.554v1.015h-1.384v-1.015a2.683,2.683,0,0,1-1.2-.6A1.675,1.675,0,0,1,117,286.09h1.015q.069.969,1.384.969a1.65,1.65,0,0,0,.969-.231.8.8,0,0,0,.277-.554q0-.761-1.384-1.107c-1.43-.323-2.168-.969-2.168-1.892a1.336,1.336,0,0,1,.461-1.061,2.516,2.516,0,0,1,1.153-.6V280.6h1.384v1.015a2.214,2.214,0,0,1,1.107.646,2.31,2.31,0,0,1,.415,1.107H120.6c-.046-.646-.415-.969-1.153-.969a1.528,1.528,0,0,0-.877.231.7.7,0,0,0-.323.646C118.246,283.6,118.707,283.922,119.63,284.152Z" transform="translate(75.782 601.323)" fill="#fff"/>
  </g>
</svg>
