<svg xmlns="http://www.w3.org/2000/svg" width="15.514" height="9.873" viewBox="0 0 15.514 9.873">
  <path id="path" d="M373.591,984.324a10.939,10.939,0,0,1,2.045-.282,7.473,7.473,0,0,1,2.045.282,7.247,7.247,0,0,1,1.975.846,1.7,1.7,0,0,1,.917,1.34v1.763H370.7V986.51a1.553,1.553,0,0,1,.917-1.34A6.2,6.2,0,0,1,373.591,984.324ZM377.047,982a2.045,2.045,0,1,1,.635-1.481A2.03,2.03,0,0,1,377.047,982Zm5.642,0a2.045,2.045,0,1,1,.635-1.481A2.03,2.03,0,0,1,382.688,982Zm-1.481,2.045a7.474,7.474,0,0,1,2.045.282,8.9,8.9,0,0,1,2.045.846,1.554,1.554,0,0,1,.917,1.34v1.763h-4.231V986.51a3.046,3.046,0,0,0-1.41-2.468Z" transform="translate(-370.7 -978.4)" fill="#fff"/>
</svg>
