<svg xmlns="http://www.w3.org/2000/svg" width="12.909" height="13.16" viewBox="0 0 12.909 13.16">
  <path id="path" d="M50.481,1156.638l1.382,1.053a.39.39,0,0,1,.066.46l-1.316,2.3a.293.293,0,0,1-.395.132l-1.645-.658a5.366,5.366,0,0,1-1.119.658l-.263,1.711c-.066.2-.132.263-.329.263H44.229a.336.336,0,0,1-.329-.263l-.263-1.711a3.852,3.852,0,0,1-1.119-.658l-1.645.658a.293.293,0,0,1-.395-.132l-1.316-2.3a.317.317,0,0,1,.066-.46l1.382-1.053v-1.316l-1.382-1.053a.39.39,0,0,1-.066-.461l1.316-2.3a.293.293,0,0,1,.395-.132l1.645.658a5.366,5.366,0,0,1,1.119-.658l.263-1.711c.066-.2.132-.263.329-.263h2.632a.336.336,0,0,1,.329.263l.263,1.711a3.852,3.852,0,0,1,1.119.658l1.645-.658a.293.293,0,0,1,.395.132l1.316,2.3a.318.318,0,0,1-.066.461l-1.382,1.053v1.316Zm-6.514.987a2.385,2.385,0,1,0-.658-1.645A2.183,2.183,0,0,0,43.966,1157.625Z" transform="translate(-39.091 -1149.4)" fill="#fff"/>
</svg>
