<svg xmlns="http://www.w3.org/2000/svg" width="11.107" height="11.106" viewBox="0 0 11.107 11.106">
  <path id="path" d="M114.511,211.511a5.279,5.279,0,0,1,3.943-1.611,5.5,5.5,0,0,1,3.943,1.611,5.279,5.279,0,0,1,1.611,3.943A5.5,5.5,0,0,1,122.4,219.4a5.279,5.279,0,0,1-3.943,1.611,5.5,5.5,0,0,1-3.943-1.611,5.28,5.28,0,0,1-1.611-3.943A5.4,5.4,0,0,1,114.511,211.511Zm.777,7.053a4.293,4.293,0,0,0,3.11,1.333,4.2,4.2,0,0,0,3.11-1.333,4.293,4.293,0,0,0,1.333-3.11,4.117,4.117,0,0,0-1.333-3.11,4.293,4.293,0,0,0-3.11-1.333,4.2,4.2,0,0,0-3.11,1.333,4.293,4.293,0,0,0-1.333,3.11A4.785,4.785,0,0,0,115.288,218.564Zm3.443-5.942v2.888l2.5,1.5-.444.722-2.888-1.777v-3.332Z" transform="translate(-112.9 -209.9)" fill="#5a5a5a"/>
</svg>
