<svg xmlns="http://www.w3.org/2000/svg" width="11.1" height="7.568" viewBox="0 0 11.1 7.568">
  <path id="path" d="M224.97,1222.56a5.922,5.922,0,0,1,6.761,0,6.026,6.026,0,0,1,2.17,2.724,5.949,5.949,0,0,1-8.93,2.725,6.025,6.025,0,0,1-2.17-2.725A5.712,5.712,0,0,1,224.97,1222.56Zm1.564,4.541a2.447,2.447,0,0,0,1.766.757,2.29,2.29,0,0,0,1.766-.757,2.668,2.668,0,0,0,.757-1.766,2.367,2.367,0,0,0-.757-1.766,2.668,2.668,0,0,0-1.766-.757,2.29,2.29,0,0,0-1.766.757,2.668,2.668,0,0,0-.757,1.766A2.448,2.448,0,0,0,226.534,1227.1Zm.757-2.876a1.463,1.463,0,1,1-.454,1.059A1.453,1.453,0,0,1,227.29,1224.224Z" transform="translate(-222.8 -1221.5)" fill="#7ea1ff"/>
</svg>
