<svg xmlns="http://www.w3.org/2000/svg" width="13" height="13" viewBox="0 0 13 13">
  <path id="path" d="M927.885,1116.585a6.179,6.179,0,0,1,4.615-1.885,6.433,6.433,0,0,1,4.615,1.885A6.081,6.081,0,0,1,939,1121.2a6.433,6.433,0,0,1-1.885,4.615,6.081,6.081,0,0,1-4.615,1.885,6.433,6.433,0,0,1-4.615-1.885A6.081,6.081,0,0,1,926,1121.2,6.326,6.326,0,0,1,927.885,1116.585Zm.975,8.255a5.025,5.025,0,0,0,3.64,1.56,4.92,4.92,0,0,0,3.64-1.56,5.3,5.3,0,0,0,1.56-3.64,4.919,4.919,0,0,0-1.56-3.64,5.3,5.3,0,0,0-3.64-1.56,4.919,4.919,0,0,0-3.64,1.56,5.3,5.3,0,0,0-1.56,3.64A5.025,5.025,0,0,0,928.86,1124.84Zm3.965-6.955v3.38l2.925,1.755-.52.845-3.38-2.08v-3.9Z" transform="translate(-926 -1114.7)" fill="#fff"/>
</svg>
